<?xml version="1.0" encoding="UTF-8"?><svg id="_レイヤー_1" xmlns="http://www.w3.org/2000/svg" viewBox="0 0 66.13 38.24"><defs><style>.cls-1{fill:#e83418;}.cls-1,.cls-2{stroke-width:0px;}.cls-2,.cls-3{fill:#040000;}.cls-3{font-family:Helvetica, Helvetica;font-size:7px;}</style></defs><text class="cls-3" transform="translate(19.13 6.01)"><tspan x="0" y="0">O</tspan></text><text class="cls-3" transform="translate(29.69 24.31)"><tspan x="0" y="0">O</tspan></text><text class="cls-3" transform="translate(56.92 34.87)"><tspan x="0" y="0">O</tspan></text><polygon class="cls-2" points="11.06 21.63 11.51 21.89 11.51 33.96 11.06 33.96 11.06 21.63"/><rect class="cls-1" x="5.47" y="13.49" width=".45" height="12.9" transform="translate(-14.42 14.9) rotate(-59.99)"/><rect class="cls-1" x="6.69" y="11.38" width=".45" height="12.9" transform="translate(-11.98 14.9) rotate(-59.99)"/><polygon class="cls-2" points="21.85 15.4 21.85 15.92 11.51 21.89 11.06 21.63 21.85 15.4"/><rect class="cls-2" x="20.41" y="7.43" width=".45" height="8.93"/><rect class="cls-2" x="22.85" y="7.43" width=".45" height="8.93"/><polygon class="cls-2" points="29.19 19.64 28.97 20.03 21.85 15.92 21.85 15.4 29.19 19.64"/><polygon class="cls-2" points="42.98 15.4 42.98 15.92 35.82 20.05 35.6 19.66 42.98 15.4"/><polygon class="cls-2" points="53.6 21.53 53.54 21.76 53.38 21.92 42.98 15.92 42.98 15.4 53.6 21.53"/><polygon class="cls-2" points="66.13 21.53 65.35 21.98 53.93 21.98 53.54 21.76 53.6 21.53 66.13 21.53"/><polygon class="cls-2" points="61.79 29.05 61.4 28.83 65.35 21.98 66.13 21.53 61.79 29.05"/><polygon class="cls-2" points="57.88 28.81 57.49 29.03 53.38 21.92 53.54 21.76 53.93 21.98 57.88 28.81"/></svg>