<?xml version="1.0" encoding="utf-8"?>
<!-- Generator: Adobe Illustrator 28.0.0, SVG Export Plug-In . SVG Version: 6.00 Build 0)  -->
<svg version="1.1" id="レイヤー_1" xmlns="http://www.w3.org/2000/svg" xmlns:xlink="http://www.w3.org/1999/xlink" x="0px"
	 y="0px" viewBox="0 0 114.24 40.32" style="enable-background:new 0 0 114.24 40.32;" xml:space="preserve">
<style type="text/css">
	.st0{fill:#040000;}
	.st1{font-family:'Helvetica';}
	.st2{font-size:7px;}
	.st3{fill:#E83418;}
</style>
<text transform="matrix(1 0 0 1 18.5201 6.0108)" class="st0 st1 st2">O</text>
<text transform="matrix(1 0 0 1 29.0801 24.3108)" class="st0 st1 st2">O</text>
<text transform="matrix(1 0 0 1 60.7701 18.2108)" class="st0 st1 st2">O</text>
<polygon class="st3" points="10.67,21.5 10.67,22.02 0,15.85 0.23,15.46 "/>
<rect x="5.78" y="10.85" transform="matrix(0.5002 -0.8659 0.8659 0.5002 -11.065 13.3163)" class="st3" width="0.45" height="10.79"/>
<polygon class="st0" points="21.24,15.4 21.24,15.92 10.67,22.02 10.67,21.5 "/>
<rect x="19.8" y="7.43" class="st0" width="0.45" height="8.93"/>
<rect x="22.24" y="7.43" class="st0" width="0.45" height="8.93"/>
<polygon class="st0" points="28.58,19.64 28.36,20.03 21.24,15.92 21.24,15.4 "/>
<polygon class="st0" points="42.36,15.4 42.36,15.92 35.21,20.05 34.99,19.66 "/>
<polygon class="st0" points="52.93,21.5 52.93,22.02 42.36,15.92 42.36,15.4 "/>
<polygon class="st0" points="59.96,17.44 60.19,17.83 52.93,22.02 52.93,21.5 "/>
<polygon class="st0" points="74.06,21.5 74.06,21.76 73.84,21.89 66.68,17.76 66.91,17.37 "/>
<polygon class="st0" points="74.29,33.83 73.84,34.09 73.84,21.89 74.06,21.76 74.29,21.89 "/>
<polygon class="st0" points="84.17,39.53 84.62,40.06 84.62,40.32 73.84,34.09 74.29,33.83 "/>
<polygon class="st0" points="79.41,27.86 79.9,27.86 84.73,39.73 84.62,40.06 84.17,39.53 "/>
<polygon class="st0" points="84.17,16.18 84.62,15.66 84.73,15.98 79.9,27.86 79.41,27.86 "/>
<polygon class="st0" points="84.62,15.4 84.62,15.66 84.17,16.18 74.29,21.89 74.06,21.76 74.06,21.5 "/>
<polygon class="st0" points="95.22,21.51 95.19,21.76 94.97,21.89 84.73,15.98 84.62,15.66 84.62,15.4 "/>
<polygon class="st0" points="106.88,17.72 106.71,18.25 95.42,21.92 95.19,21.76 95.22,21.51 "/>
<polygon class="st0" points="114.24,27.86 113.68,27.86 106.71,18.25 106.88,17.72 "/>
<polygon class="st0" points="106.88,37.99 106.71,37.46 113.68,27.86 114.24,27.86 "/>
<rect x="104.08" y="31.13" transform="matrix(0.5878 -0.809 0.809 0.5878 19.3141 100.6239)" class="st0" width="8.65" height="0.45"/>
<polygon class="st0" points="95.22,34.2 95.19,33.96 95.42,33.79 106.71,37.46 106.88,37.99 "/>
<polygon class="st0" points="94.97,33.83 95.19,33.96 95.22,34.2 84.62,40.32 84.62,40.06 84.73,39.73 "/>
<polygon class="st0" points="95.42,33.79 95.19,33.96 94.97,33.83 94.97,21.89 95.19,21.76 95.42,21.92 "/>
</svg>
