<?xml version="1.0" encoding="utf-8"?>
<!-- Generator: Adobe Illustrator 28.0.0, SVG Export Plug-In . SVG Version: 6.00 Build 0)  -->
<svg version="1.1" id="レイヤー_1" xmlns="http://www.w3.org/2000/svg" xmlns:xlink="http://www.w3.org/1999/xlink" x="0px"
	 y="0px" viewBox="0 0 83.16 36.86" style="enable-background:new 0 0 83.16 36.86;" xml:space="preserve">
<style type="text/css">
	.st0{fill:#040000;}
	.st1{font-family:'Helvetica';}
	.st2{font-size:7px;}
	.st3{fill:#E83418;}
</style>
<text transform="matrix(1 0 0 1 19.1301 8.9132)" class="st0 st1 st2">O</text>
<text transform="matrix(1 0 0 1 29.6901 27.2132)" class="st0 st1 st2">O</text>
<polygon class="st0" points="11.06,24.53 11.51,24.79 11.51,36.86 11.06,36.86 "/>
<rect x="5.47" y="16.39" transform="matrix(0.5002 -0.8659 0.8659 0.5002 -16.9315 16.3501)" class="st3" width="0.45" height="12.9"/>
<rect x="6.69" y="14.28" transform="matrix(0.5002 -0.8659 0.8659 0.5002 -14.4929 16.3506)" class="st3" width="0.45" height="12.9"/>
<polygon class="st0" points="21.85,18.3 21.85,18.82 11.51,24.79 11.06,24.53 "/>
<rect x="20.41" y="10.33" class="st0" width="0.45" height="8.93"/>
<rect x="22.85" y="10.33" class="st0" width="0.45" height="8.93"/>
<polygon class="st0" points="29.19,22.54 28.97,22.93 21.85,18.82 21.85,18.3 "/>
<polygon class="st0" points="42.76,18.43 42.98,18.56 42.98,18.82 35.82,22.95 35.6,22.56 "/>
<polygon class="st0" points="42.76,6.23 43.21,6.49 43.21,18.43 42.98,18.56 42.76,18.43 "/>
<polygon class="st0" points="53.54,0 53.54,0.26 53.09,0.78 43.21,6.49 42.76,6.23 "/>
<polygon class="st0" points="48.81,12.46 48.32,12.46 53.09,0.78 53.54,0.26 53.65,0.58 "/>
<polygon class="st0" points="53.65,24.34 53.54,24.66 53.09,24.14 48.32,12.46 48.81,12.46 "/>
<polygon class="st0" points="53.09,24.14 53.54,24.66 53.54,24.92 42.98,18.82 42.98,18.56 43.21,18.43 "/>
<polygon class="st0" points="63.89,18.43 64.11,18.56 64.14,18.8 53.54,24.92 53.54,24.66 53.65,24.34 "/>
<polygon class="st0" points="75.63,22.07 75.8,22.59 64.14,18.8 64.11,18.56 64.34,18.4 "/>
<polygon class="st0" points="82.6,12.46 83.16,12.46 75.8,22.59 75.63,22.07 "/>
<polygon class="st0" points="75.63,2.85 75.8,2.33 83.16,12.46 82.6,12.46 "/>
<polygon class="st0" points="64.34,6.52 64.11,6.36 64.14,6.11 75.8,2.33 75.63,2.85 "/>
<polygon class="st0" points="64.14,6.11 64.11,6.36 63.89,6.49 53.65,0.58 53.54,0.26 53.54,0 "/>
<polygon class="st0" points="63.89,6.49 64.11,6.36 64.34,6.52 64.34,18.4 64.11,18.56 63.89,18.43 "/>
</svg>
