<?xml version="1.0" encoding="utf-8"?>
<!-- Generator: Adobe Illustrator 28.0.0, SVG Export Plug-In . SVG Version: 6.00 Build 0)  -->
<svg version="1.1" id="レイヤー_1" xmlns="http://www.w3.org/2000/svg" xmlns:xlink="http://www.w3.org/1999/xlink" x="0px"
	 y="0px" viewBox="0 0 64.23 33.95" style="enable-background:new 0 0 64.23 33.95;" xml:space="preserve">
<style type="text/css">
	.st0{fill:#040000;}
	.st1{font-family:'Helvetica';}
	.st2{font-size:7px;}
	.st3{fill:#E83418;}
</style>
<text transform="matrix(1 0 0 1 19.1301 6.0108)" class="st0 st1 st2">O</text>
<text transform="matrix(1 0 0 1 29.7001 24.3008)" class="st0 st1 st2">O</text>
<polygon class="st0" points="11.07,21.62 11.52,21.88 11.52,33.95 11.07,33.95 "/>
<rect x="5.48" y="13.48" transform="matrix(0.4998 -0.8661 0.8661 0.4998 -14.4099 14.9074)" class="st3" width="0.45" height="12.91"/>
<rect x="6.7" y="11.36" transform="matrix(0.4998 -0.8661 0.8661 0.4998 -11.9688 14.9069)" class="st3" width="0.45" height="12.91"/>
<polygon class="st0" points="21.85,15.39 21.85,15.91 11.52,21.88 11.07,21.62 "/>
<rect x="20.41" y="7.43" class="st0" width="0.45" height="8.92"/>
<rect x="22.85" y="7.43" class="st0" width="0.45" height="8.92"/>
<polygon class="st0" points="29.2,19.63 28.98,20.02 21.85,15.91 21.85,15.39 "/>
<polygon class="st0" points="42.98,15.39 42.98,15.91 35.83,20.04 35.61,19.65 "/>
<polygon class="st0" points="53.55,21.49 53.55,21.75 53.33,21.88 42.98,15.91 42.98,15.39 "/>
<polygon class="st0" points="64,15.45 64.23,15.84 53.78,21.88 53.55,21.75 53.55,21.49 "/>
<polygon class="st0" points="53.78,33.95 53.33,33.95 53.33,21.88 53.55,21.75 53.78,21.88 "/>
</svg>
