<?xml version="1.0" encoding="utf-8"?>
<!-- Generator: Adobe Illustrator 28.0.0, SVG Export Plug-In . SVG Version: 6.00 Build 0)  -->
<svg version="1.1" id="レイヤー_1" xmlns="http://www.w3.org/2000/svg" xmlns:xlink="http://www.w3.org/1999/xlink" x="0px"
	 y="0px" viewBox="0 0 85.36 36.78" style="enable-background:new 0 0 85.36 36.78;" xml:space="preserve">
<style type="text/css">
	.st0{fill:#040000;}
	.st1{font-family:'Helvetica';}
	.st2{font-size:7px;}
	.st3{fill:#E83418;}
</style>
<text transform="matrix(1 0 0 1 19.1301 8.8383)" class="st0 st1 st2">O</text>
<text transform="matrix(1 0 0 1 29.7001 27.1383)" class="st0 st1 st2">O</text>
<text transform="matrix(1 0 0 1 61.5849 20.97)" class="st0 st1 st2">N</text>
<polygon class="st0" points="11.07,24.46 11.52,24.71 11.52,36.78 11.07,36.78 "/>
<rect x="5.48" y="16.31" transform="matrix(0.4998 -0.8661 0.8661 0.4998 -16.8676 16.3267)" class="st3" width="0.45" height="12.91"/>
<rect x="6.7" y="14.2" transform="matrix(0.4998 -0.8661 0.8661 0.4998 -14.4264 16.3261)" class="st3" width="0.45" height="12.91"/>
<polygon class="st0" points="21.85,18.23 21.85,18.74 11.52,24.71 11.07,24.46 "/>
<rect x="20.41" y="10.26" class="st0" width="0.45" height="8.93"/>
<rect x="22.85" y="10.26" class="st0" width="0.45" height="8.93"/>
<polygon class="st0" points="29.2,22.47 28.98,22.86 21.85,18.74 21.85,18.23 "/>
<polygon class="st0" points="42.98,18.23 42.98,18.74 35.83,22.87 35.61,22.48 "/>
<polygon class="st0" points="53.55,24.33 53.55,24.84 42.98,18.74 42.98,18.23 "/>
<polygon class="st0" points="60.31,20.42 60.53,20.81 53.55,24.84 53.55,24.33 "/>
<polygon class="st0" points="74.68,24.33 74.68,24.84 67.63,20.77 67.85,20.38 "/>
<polygon class="st0" points="85.13,18.29 85.36,18.68 74.68,24.84 74.68,24.33 "/>
<polygon class="st0" points="63.89,6.15 64.34,6.41 64.34,14.67 63.89,14.67 "/>
<polygon class="st0" points="74.57,0 74.79,0.39 64.34,6.41 63.89,6.15 "/>
</svg>
