<?xml version="1.0" encoding="utf-8"?>
<!-- Generator: Adobe Illustrator 28.0.0, SVG Export Plug-In . SVG Version: 6.00 Build 0)  -->
<svg version="1.1" id="レイヤー_1" xmlns="http://www.w3.org/2000/svg" xmlns:xlink="http://www.w3.org/1999/xlink" x="0px"
	 y="0px" viewBox="0 0 95.92 40.25" style="enable-background:new 0 0 95.92 40.25;" xml:space="preserve">
<style type="text/css">
	.st0{fill:#040000;}
	.st1{font-family:'Helvetica';}
	.st2{font-size:7px;}
	.st3{fill:#E83418;}
</style>
<text transform="matrix(1 0 0 1 19.1302 6.0106)" class="st0 st1 st2">O</text>
<text transform="matrix(1 0 0 1 29.6901 24.3106)" class="st0 st1 st2">O</text>
<polygon class="st0" points="11.06,21.63 11.51,21.89 11.51,33.96 11.06,33.96 "/>
<rect x="5.47" y="13.49" transform="matrix(0.5002 -0.8659 0.8659 0.5002 -14.4181 14.8994)" class="st3" width="0.45" height="12.9"/>
<rect x="6.69" y="11.38" transform="matrix(0.5002 -0.8659 0.8659 0.5002 -11.9796 14.9)" class="st3" width="0.45" height="12.9"/>
<polygon class="st0" points="21.85,15.4 21.85,15.92 11.51,21.89 11.06,21.63 "/>
<rect x="20.41" y="7.43" class="st0" width="0.45" height="8.93"/>
<rect x="22.85" y="7.43" class="st0" width="0.45" height="8.93"/>
<polygon class="st0" points="29.19,19.64 28.97,20.03 21.85,15.92 21.85,15.4 "/>
<polygon class="st0" points="42.98,15.4 42.98,15.92 35.82,20.05 35.6,19.66 "/>
<polygon class="st0" points="53.54,21.5 53.54,21.76 53.32,21.89 42.98,15.92 42.98,15.4 "/>
<polygon class="st0" points="53.77,33.83 53.32,34.09 53.32,21.89 53.54,21.76 53.77,21.89 "/>
<polygon class="st0" points="64.23,39.86 64,40.25 53.32,34.09 53.77,33.83 "/>
<polygon class="st0" points="64.11,15.4 64.11,15.92 53.77,21.89 53.54,21.76 53.54,21.5 "/>
<polygon class="st0" points="74.67,21.5 74.67,22.02 64.11,15.92 64.11,15.4 "/>
<polygon class="st0" points="85.24,15.4 85.24,15.92 74.67,22.02 74.67,21.5 "/>
<polygon class="st0" points="95.92,21.56 95.69,21.95 85.24,15.92 85.24,15.4 "/>
</svg>
