<?xml version="1.0" encoding="utf-8"?>
<!-- Generator: Adobe Illustrator 28.0.0, SVG Export Plug-In . SVG Version: 6.00 Build 0)  -->
<svg version="1.1" id="レイヤー_1" xmlns="http://www.w3.org/2000/svg" xmlns:xlink="http://www.w3.org/1999/xlink" x="0px"
	 y="0px" viewBox="0 0 42.48 27.68" style="enable-background:new 0 0 42.48 27.68;" xml:space="preserve">
<style type="text/css">
	.st0{fill:#040000;}
	.st1{font-family:'Helvetica';}
	.st2{font-size:7px;}
	.st3{fill:#E83418;}
</style>
<text transform="matrix(1 0 0 1 18.52 6.0105)" class="st0 st1 st2">O</text>
<text transform="matrix(1 0 0 1 29.09 24.3105)" class="st0 st1 st2">O</text>
<polygon class="st3" points="10.68,21.5 10.68,22.02 0,15.85 0.22,15.46 "/>
<rect x="5.78" y="10.84" transform="matrix(0.4998 -0.8661 0.8661 0.4998 -11.0621 13.3262)" class="st3" width="0.45" height="10.79"/>
<polygon class="st0" points="21.24,15.4 21.24,15.92 10.68,22.02 10.68,21.5 "/>
<rect x="19.8" y="7.38" class="st0" width="0.45" height="8.98"/>
<rect x="22.24" y="7.38" class="st0" width="0.45" height="8.98"/>
<polygon class="st0" points="28.57,19.63 28.34,20.01 21.24,15.92 21.24,15.4 "/>
<rect x="34.57" y="17.52" transform="matrix(0.8659 -0.5002 0.5002 0.8659 -3.6815 21.7629)" class="st0" width="8.36" height="0.45"/>
</svg>
