<?xml version="1.0" encoding="UTF-8"?><svg id="_レイヤー_1" xmlns="http://www.w3.org/2000/svg" viewBox="0 0 53.05 30.51"><defs><style>.cls-1{fill:#e83418;}.cls-1,.cls-2{stroke-width:0px;}.cls-2,.cls-3{fill:#040000;}.cls-3{font-family:Helvetica, Helvetica;font-size:7px;}</style></defs><text class="cls-3" transform="translate(7.95 8.85)"><tspan x="0" y="0">O</tspan></text><text class="cls-3" transform="translate(29.08 8.85)"><tspan x="0" y="0">O</tspan></text><text class="cls-3" transform="translate(39.65 27.15)"><tspan x="0" y="0">O</tspan></text><rect class="cls-2" x="3.51" y="-1.9" width=".45" height="8.36" transform="translate(-.11 4.38) rotate(-59.99)"/><polygon class="cls-2" points="10.9 18.36 10.45 18.62 10.45 10.22 10.9 10.22 10.9 18.36"/><polygon class="cls-1" points="21.24 24.34 21.24 24.85 10.45 18.62 10.9 18.36 21.24 24.34"/><rect class="cls-1" x="16.95" y="14.74" width=".45" height="9.39" transform="translate(-8.24 24.6) rotate(-60.01)"/><polygon class="cls-2" points="31.8 18.24 31.8 18.75 21.24 24.85 21.24 24.34 31.8 18.24"/><rect class="cls-2" x="30.36" y="10.22" width=".45" height="8.98"/><rect class="cls-2" x="32.8" y="10.22" width=".45" height="8.98"/><polygon class="cls-2" points="39.17 22.48 38.94 22.87 31.8 18.75 31.8 18.24 39.17 22.48"/><rect class="cls-2" x="45.17" y="20.35" width="8.32" height=".45" transform="translate(-3.68 27.43) rotate(-30.01)"/></svg>