<?xml version="1.0" encoding="utf-8"?>
<!-- Generator: Adobe Illustrator 28.0.0, SVG Export Plug-In . SVG Version: 6.00 Build 0)  -->
<svg version="1.1" id="レイヤー_1" xmlns="http://www.w3.org/2000/svg" xmlns:xlink="http://www.w3.org/1999/xlink" x="0px"
	 y="0px" viewBox="0 0 73.52 40.06" style="enable-background:new 0 0 73.52 40.06;" xml:space="preserve">
<style type="text/css">
	.st0{fill:#040000;}
	.st1{font-family:'Helvetica';}
	.st2{font-size:7px;}
	.st3{fill:#E83418;}
</style>
<text transform="matrix(1 0 0 1 19.13 6.0109)" class="st0 st1 st2">O</text>
<text transform="matrix(1 0 0 1 29.7001 24.3109)" class="st0 st1 st2">O</text>
<text transform="matrix(1 0 0 1 68.0801 24.3109)" class="st0 st1 st2">O</text>
<polygon class="st0" points="11.07,21.63 11.52,21.89 11.52,33.96 11.07,33.96 "/>
<rect x="5.48" y="13.49" transform="matrix(0.4998 -0.8661 0.8661 0.4998 -14.4187 14.9125)" class="st3" width="0.45" height="12.91"/>
<rect x="6.7" y="11.37" transform="matrix(0.4998 -0.8661 0.8661 0.4998 -11.9776 14.9119)" class="st3" width="0.45" height="12.91"/>
<polygon class="st0" points="21.85,15.4 21.85,15.92 11.52,21.89 11.07,21.63 "/>
<rect x="20.41" y="7.43" class="st0" width="0.45" height="8.93"/>
<rect x="22.85" y="7.43" class="st0" width="0.45" height="8.93"/>
<polygon class="st0" points="29.2,19.64 28.98,20.03 21.85,15.92 21.85,15.4 "/>
<polygon class="st0" points="42.98,15.4 42.98,15.92 35.83,20.05 35.61,19.66 "/>
<polygon class="st0" points="53.52,21.48 53.55,21.76 53.1,21.76 42.98,15.92 42.98,15.4 "/>
<polygon class="st0" points="43.21,27.99 42.76,27.73 53.1,21.76 53.55,21.76 53.52,22.04 "/>
<polygon class="st0" points="43.21,40.06 42.76,40.06 42.76,27.73 43.21,27.99 "/>
<polygon class="st0" points="62.17,12.81 62.17,13.45 53.87,21.76 53.55,21.76 53.52,21.48 "/>
<polygon class="st0" points="68.21,18.85 67.9,19.17 62.17,13.45 62.17,12.81 "/>
<polygon class="st0" points="62.17,30.71 62.17,30.07 67.8,24.44 68.12,24.76 "/>
<polygon class="st0" points="62.17,30.07 62.17,30.71 53.52,22.04 53.55,21.76 53.87,21.76 "/>
</svg>
