<?xml version="1.0" encoding="utf-8"?>
<!-- Generator: Adobe Illustrator 28.0.0, SVG Export Plug-In . SVG Version: 6.00 Build 0)  -->
<svg version="1.1" id="レイヤー_1" xmlns="http://www.w3.org/2000/svg" xmlns:xlink="http://www.w3.org/1999/xlink" x="0px"
	 y="0px" viewBox="0 0 42.3 28.38" style="enable-background:new 0 0 42.3 28.38;" xml:space="preserve">
<style type="text/css">
	.st0{fill:#040000;}
	.st1{font-family:'Helvetica';}
	.st2{font-size:7px;}
	.st3{font-size:5.25px;}
	.st4{fill:#E83418;}
</style>
<text transform="matrix(1 0 0 1 29.275 24.2425)" class="st0 st1 st2">NH</text>
<text transform="matrix(1 0 0 1 39.3853 25.8528)" class="st0 st1 st3">2</text>
<text transform="matrix(1 0 0 1 18.5201 6.0108)" class="st0 st1 st2">O</text>
<polygon class="st4" points="10.67,21.5 10.67,22.02 0,15.85 0.23,15.46 "/>
<rect x="5.78" y="10.85" transform="matrix(0.5002 -0.8659 0.8659 0.5002 -11.065 13.3163)" class="st4" width="0.45" height="10.79"/>
<polygon class="st0" points="21.24,15.4 21.24,15.92 10.67,22.02 10.67,21.5 "/>
<polygon class="st0" points="28.19,19.41 27.97,19.8 21.24,15.92 21.24,15.4 "/>
<rect x="19.8" y="7.38" class="st0" width="0.45" height="8.98"/>
<rect x="22.24" y="7.38" class="st0" width="0.45" height="8.98"/>
</svg>
