<?xml version="1.0" encoding="utf-8"?>
<!-- Generator: Adobe Illustrator 28.0.0, SVG Export Plug-In . SVG Version: 6.00 Build 0)  -->
<svg version="1.1" id="レイヤー_1" xmlns="http://www.w3.org/2000/svg" xmlns:xlink="http://www.w3.org/1999/xlink" x="0px"
	 y="0px" viewBox="0 0 114.85 40.31" style="enable-background:new 0 0 114.85 40.31;" xml:space="preserve">
<style type="text/css">
	.st0{fill:#040000;}
	.st1{font-family:'Helvetica';}
	.st2{font-size:7px;}
	.st3{fill:#E83418;}
</style>
<text transform="matrix(1 0 0 1 19.129 6.0108)" class="st0 st1 st2">O</text>
<text transform="matrix(1 0 0 1 29.689 24.3008)" class="st0 st1 st2">O</text>
<text transform="matrix(1 0 0 1 61.389 18.2108)" class="st0 st1 st2">O</text>
<polygon class="st0" points="11.06,21.62 11.51,21.88 11.51,33.95 11.06,33.95 "/>
<rect x="5.47" y="13.49" transform="matrix(0.4996 -0.8663 0.8663 0.4996 -14.4174 14.9105)" class="st3" width="0.45" height="12.89"/>
<rect x="6.69" y="11.37" transform="matrix(0.4996 -0.8663 0.8663 0.4996 -11.9783 14.9103)" class="st3" width="0.45" height="12.9"/>
<polygon class="st0" points="21.85,15.4 21.85,15.92 11.51,21.88 11.06,21.62 "/>
<rect x="20.41" y="7.43" class="st0" width="0.45" height="8.93"/>
<rect x="22.85" y="7.43" class="st0" width="0.45" height="8.93"/>
<polygon class="st0" points="29.19,19.63 28.96,20.02 21.85,15.92 21.85,15.4 "/>
<polygon class="st0" points="42.98,15.4 42.98,15.92 35.82,20.04 35.6,19.65 "/>
<polygon class="st0" points="53.54,21.49 53.54,22.01 42.98,15.92 42.98,15.4 "/>
<polygon class="st0" points="60.58,17.43 60.8,17.82 53.54,22.01 53.54,21.49 "/>
<polygon class="st0" points="74.67,21.49 74.67,21.75 74.45,21.88 67.3,17.76 67.53,17.37 "/>
<polygon class="st0" points="74.9,33.82 74.45,34.08 74.45,21.88 74.67,21.75 74.9,21.88 "/>
<polygon class="st0" points="84.78,39.52 85.23,40.05 85.23,40.31 74.45,34.08 74.9,33.82 "/>
<polygon class="st0" points="80.02,27.85 80.5,27.85 85.34,39.72 85.23,40.05 84.78,39.52 "/>
<polygon class="st0" points="84.78,16.18 85.23,15.66 85.34,15.98 80.5,27.85 80.02,27.85 "/>
<polygon class="st0" points="85.23,15.4 85.23,15.66 84.78,16.18 74.9,21.88 74.67,21.75 74.67,21.49 "/>
<polygon class="st0" points="95.83,21.5 95.8,21.75 95.58,21.88 85.34,15.98 85.23,15.66 85.23,15.4 "/>
<polygon class="st0" points="107.49,17.71 107.32,18.24 96.03,21.91 95.8,21.75 95.83,21.5 "/>
<polygon class="st0" points="114.85,27.85 114.29,27.85 107.32,18.24 107.49,17.71 "/>
<rect x="108.79" y="20.02" transform="matrix(0.8091 -0.5877 0.5877 0.8091 6.5047 68.716)" class="st0" width="0.45" height="8.65"/>
<polygon class="st0" points="107.49,37.98 107.32,37.45 114.29,27.85 114.85,27.85 "/>
<polygon class="st0" points="95.83,34.19 95.8,33.95 96.03,33.78 107.32,37.45 107.49,37.98 "/>
<polygon class="st0" points="95.58,33.82 95.8,33.95 95.83,34.19 85.23,40.31 85.23,40.05 85.34,39.72 "/>
<polygon class="st0" points="96.03,33.78 95.8,33.95 95.58,33.82 95.58,21.88 95.8,21.75 96.03,21.91 "/>
</svg>
