<?xml version="1.0" encoding="utf-8"?>
<!-- Generator: Adobe Illustrator 28.0.0, SVG Export Plug-In . SVG Version: 6.00 Build 0)  -->
<svg version="1.1" id="レイヤー_1" xmlns="http://www.w3.org/2000/svg" xmlns:xlink="http://www.w3.org/1999/xlink" x="0px"
	 y="0px" viewBox="0 0 118.35 27.68" style="enable-background:new 0 0 118.35 27.68;" xml:space="preserve">
<style type="text/css">
	.st0{fill:#040000;}
	.st1{font-family:'Helvetica';}
	.st2{font-size:7px;}
	.st3{fill:#E83418;}
</style>
<text transform="matrix(1 0 0 1 18.52 6.0106)" class="st0 st1 st2">O</text>
<text transform="matrix(1 0 0 1 29.0901 24.3106)" class="st0 st1 st2">O</text>
<text transform="matrix(1 0 0 1 81.9101 18.2106)" class="st0 st1 st2">O</text>
<text transform="matrix(1 0 0 1 109.1401 7.6506)" class="st0 st1 st2">O</text>
<polygon class="st3" points="10.68,21.5 10.68,22.02 0,15.85 0.22,15.46 "/>
<rect x="5.78" y="10.84" transform="matrix(0.4998 -0.8661 0.8661 0.4998 -11.0621 13.3262)" class="st3" width="0.45" height="10.79"/>
<polygon class="st0" points="21.24,15.4 21.24,15.92 10.68,22.02 10.68,21.5 "/>
<rect x="19.8" y="7.43" class="st0" width="0.45" height="8.93"/>
<rect x="22.24" y="7.43" class="st0" width="0.45" height="8.93"/>
<polygon class="st0" points="28.63,19.66 28.4,20.05 21.24,15.92 21.24,15.4 "/>
<polygon class="st0" points="42.37,15.4 42.37,15.92 35.26,20.03 35.04,19.64 "/>
<polygon class="st0" points="52.94,21.5 52.94,22.02 42.37,15.92 42.37,15.4 "/>
<polygon class="st0" points="63.5,15.4 63.5,15.92 52.94,22.02 52.94,21.5 "/>
<polygon class="st0" points="74.07,21.5 74.07,22.02 63.5,15.92 63.5,15.4 "/>
<polygon class="st0" points="81.14,17.41 81.36,17.8 74.07,22.02 74.07,21.5 "/>
<polygon class="st0" points="95.2,21.5 95.2,22.02 87.86,17.78 88.08,17.39 "/>
<polygon class="st0" points="105.6,15.49 105.76,15.66 105.82,15.88 95.2,22.02 95.2,21.5 "/>
<polygon class="st0" points="117.57,15.43 118.35,15.88 105.82,15.88 105.76,15.66 106.15,15.43 "/>
<polygon class="st0" points="113.67,8.68 114.06,8.45 118.35,15.88 117.57,15.43 "/>
<polygon class="st0" points="109.64,8.49 110.03,8.71 106.15,15.43 105.76,15.66 105.6,15.49 "/>
</svg>
