<?xml version="1.0" encoding="utf-8"?>
<!-- Generator: Adobe Illustrator 28.0.0, SVG Export Plug-In . SVG Version: 6.00 Build 0)  -->
<svg version="1.1" id="レイヤー_1" xmlns="http://www.w3.org/2000/svg" xmlns:xlink="http://www.w3.org/1999/xlink" x="0px"
	 y="0px" viewBox="0 0 63.62 39.87" style="enable-background:new 0 0 63.62 39.87;" xml:space="preserve">
<style type="text/css">
	.st0{fill:#040000;}
	.st1{font-family:'Helvetica';}
	.st2{font-size:7px;}
	.st3{fill:#E83418;}
</style>
<text transform="matrix(1 0 0 1 18.52 6.0107)" class="st0 st1 st2">O</text>
<text transform="matrix(1 0 0 1 29.09 24.3007)" class="st0 st1 st2">O</text>
<text transform="matrix(1 0 0 1 50.2201 36.5007)" class="st0 st1 st2">OH</text>
<polygon class="st3" points="10.68,21.49 10.68,22.01 0,15.84 0.22,15.45 "/>
<rect x="5.78" y="10.83" transform="matrix(0.4998 -0.8661 0.8661 0.4998 -11.0536 13.3213)" class="st3" width="0.45" height="10.79"/>
<polygon class="st0" points="21.24,15.39 21.24,15.91 10.68,22.01 10.68,21.49 "/>
<rect x="19.8" y="7.43" class="st0" width="0.45" height="8.92"/>
<rect x="22.24" y="7.43" class="st0" width="0.45" height="8.92"/>
<polygon class="st0" points="28.59,19.63 28.37,20.02 21.24,15.91 21.24,15.39 "/>
<polygon class="st0" points="42.37,15.39 42.37,15.91 35.22,20.04 35,19.65 "/>
<polygon class="st0" points="52.94,21.49 52.94,21.75 52.72,21.88 42.37,15.91 42.37,15.39 "/>
<polygon class="st0" points="63.39,15.45 63.62,15.84 53.17,21.88 52.94,21.75 52.94,21.49 "/>
<polygon class="st0" points="53.17,30.12 52.72,30.12 52.72,21.88 52.94,21.75 53.17,21.88 "/>
</svg>
