<?xml version="1.0" encoding="utf-8"?>
<!-- Generator: Adobe Illustrator 28.0.0, SVG Export Plug-In . SVG Version: 6.00 Build 0)  -->
<svg version="1.1" id="レイヤー_1" xmlns="http://www.w3.org/2000/svg" xmlns:xlink="http://www.w3.org/1999/xlink" x="0px"
	 y="0px" viewBox="0 0 116.43 27.68" style="enable-background:new 0 0 116.43 27.68;" xml:space="preserve">
<style type="text/css">
	.st0{fill:#040000;}
	.st1{font-family:'Helvetica';}
	.st2{font-size:7px;}
	.st3{fill:#E83418;}
</style>
<text transform="matrix(1 0 0 1 18.5201 6.0105)" class="st0 st1 st2">O</text>
<text transform="matrix(1 0 0 1 29.09 24.3105)" class="st0 st1 st2">O</text>
<polygon class="st3" points="10.68,21.5 10.68,22.02 0,15.85 0.22,15.46 "/>
<rect x="5.78" y="10.84" transform="matrix(0.4998 -0.8661 0.8661 0.4998 -11.0621 13.3262)" class="st3" width="0.45" height="10.79"/>
<polygon class="st0" points="21.24,15.4 21.24,15.92 10.68,22.02 10.68,21.5 "/>
<rect x="19.8" y="7.43" class="st0" width="0.45" height="8.93"/>
<rect x="22.24" y="7.43" class="st0" width="0.45" height="8.93"/>
<polygon class="st0" points="28.59,19.64 28.37,20.03 21.24,15.92 21.24,15.4 "/>
<polygon class="st0" points="42.37,15.4 42.37,15.92 35.22,20.05 35,19.66 "/>
<polygon class="st0" points="52.93,21.5 52.93,22.02 42.37,15.92 42.37,15.4 "/>
<polygon class="st0" points="63.5,15.4 63.5,15.92 52.93,22.02 52.93,21.5 "/>
<polygon class="st0" points="74.06,21.5 74.06,22.02 63.5,15.92 63.5,15.4 "/>
<polygon class="st0" points="84.63,15.4 84.63,15.92 74.06,22.02 74.06,21.5 "/>
<polygon class="st0" points="95.19,21.5 95.19,22.02 84.63,15.92 84.63,15.4 "/>
<polygon class="st0" points="105.54,15.53 105.76,15.66 105.76,15.92 95.19,22.02 95.19,21.5 "/>
<polygon class="st0" points="116.43,21.56 116.21,21.95 105.76,15.92 105.76,15.66 105.99,15.53 "/>
<polygon class="st0" points="105.54,3.46 105.99,3.46 105.99,15.53 105.76,15.66 105.54,15.53 "/>
</svg>
