<?xml version="1.0" encoding="utf-8"?>
<!-- Generator: Adobe Illustrator 28.0.0, SVG Export Plug-In . SVG Version: 6.00 Build 0)  -->
<svg version="1.1" id="レイヤー_1" xmlns="http://www.w3.org/2000/svg" xmlns:xlink="http://www.w3.org/1999/xlink" x="0px"
	 y="0px" viewBox="0 0 74.9 40.31" style="enable-background:new 0 0 74.9 40.31;" xml:space="preserve">
<style type="text/css">
	.st0{fill:#040000;}
	.st1{font-family:'Helvetica';}
	.st2{font-size:7px;}
	.st3{fill:#E83418;}
	.st4{fill:none;stroke:#040000;stroke-width:0.45;stroke-linecap:round;stroke-miterlimit:10;}
</style>
<text transform="matrix(1 0 0 1 19.1301 6.0105)" class="st0 st1 st2">O</text>
<text transform="matrix(1 0 0 1 29.6901 24.3105)" class="st0 st1 st2">O</text>
<polygon class="st0" points="11.06,21.63 11.51,21.89 11.51,33.96 11.06,33.96 "/>
<rect x="5.47" y="13.49" transform="matrix(0.5002 -0.8659 0.8659 0.5002 -14.4181 14.8994)" class="st3" width="0.45" height="12.9"/>
<rect x="6.69" y="11.38" transform="matrix(0.5002 -0.8659 0.8659 0.5002 -11.9795 14.9)" class="st3" width="0.45" height="12.9"/>
<polygon class="st0" points="21.85,15.4 21.85,15.92 11.51,21.89 11.06,21.63 "/>
<rect x="20.41" y="7.38" class="st0" width="0.45" height="8.98"/>
<rect x="22.85" y="7.38" class="st0" width="0.45" height="8.98"/>
<polygon class="st0" points="29.21,19.65 28.98,20.04 21.85,15.92 21.85,15.4 "/>
<polygon class="st0" points="42.98,15.4 42.98,15.92 35.88,20.01 35.66,19.62 "/>
<polygon class="st0" points="53.54,21.5 53.54,21.76 53.32,21.89 42.98,15.92 42.98,15.4 "/>
<polygon class="st0" points="64.11,15.4 64.11,15.92 53.77,21.89 53.54,21.76 53.54,21.5 "/>
<polygon class="st0" points="74.9,21.63 74.45,21.89 64.11,15.92 64.11,15.4 "/>
<polygon class="st0" points="74.9,34.09 74.45,33.83 74.45,21.89 74.9,21.63 "/>
<polygon class="st0" points="64.11,40.31 64.11,39.79 74.45,33.83 74.9,34.09 "/>
<polygon class="st0" points="53.32,34.09 53.77,33.83 64.11,39.79 64.11,40.31 "/>
<polygon class="st0" points="53.77,33.83 53.32,34.09 53.32,21.89 53.54,21.76 53.77,21.89 "/>
<circle class="st4" cx="64.11" cy="27.86" r="7.31"/>
</svg>
