<?xml version="1.0" encoding="utf-8"?>
<!-- Generator: Adobe Illustrator 28.0.0, SVG Export Plug-In . SVG Version: 6.00 Build 0)  -->
<svg version="1.1" id="レイヤー_1" xmlns="http://www.w3.org/2000/svg" xmlns:xlink="http://www.w3.org/1999/xlink" x="0px"
	 y="0px" viewBox="0 0 158.7 27.68" style="enable-background:new 0 0 158.7 27.68;" xml:space="preserve">
<style type="text/css">
	.st0{fill:#040000;}
	.st1{font-family:'Helvetica';}
	.st2{font-size:7px;}
	.st3{fill:#E83418;}
</style>
<text transform="matrix(1 0 0 1 18.5201 6.0109)" class="st0 st1 st2">O</text>
<text transform="matrix(1 0 0 1 29.0801 24.3109)" class="st0 st1 st2">O</text>
<polygon class="st3" points="10.67,21.5 10.67,22.02 0,15.85 0.23,15.46 "/>
<rect x="5.78" y="10.85" transform="matrix(0.5002 -0.8659 0.8659 0.5002 -11.0651 13.3166)" class="st3" width="0.45" height="10.79"/>
<polygon class="st0" points="21.24,15.4 21.24,15.92 10.67,22.02 10.67,21.5 "/>
<rect x="19.8" y="7.43" class="st0" width="0.45" height="8.93"/>
<rect x="22.24" y="7.43" class="st0" width="0.45" height="8.93"/>
<polygon class="st0" points="28.62,19.66 28.39,20.05 21.24,15.92 21.24,15.4 "/>
<polygon class="st0" points="42.36,15.4 42.36,15.92 35.25,20.03 35.03,19.64 "/>
<polygon class="st0" points="52.93,21.5 52.93,22.02 42.36,15.92 42.36,15.4 "/>
<polygon class="st0" points="63.49,15.4 63.49,15.92 52.93,22.02 52.93,21.5 "/>
<polygon class="st0" points="74.06,21.5 74.06,22.02 63.49,15.92 63.49,15.4 "/>
<polygon class="st0" points="84.62,15.4 84.62,15.92 74.06,22.02 74.06,21.5 "/>
<polygon class="st0" points="95.19,21.5 95.19,22.02 84.62,15.92 84.62,15.4 "/>
<polygon class="st0" points="105.75,15.4 105.75,15.92 95.19,22.02 95.19,21.5 "/>
<polygon class="st0" points="116.32,21.5 116.32,22.02 105.75,15.92 105.75,15.4 "/>
<polygon class="st0" points="126.88,15.4 126.88,15.92 116.32,22.02 116.32,21.5 "/>
<polygon class="st0" points="137.45,21.5 137.45,22.02 126.88,15.92 126.88,15.4 "/>
<polygon class="st0" points="148.01,15.4 148.01,15.92 137.45,22.02 137.45,21.5 "/>
<polygon class="st0" points="158.7,21.56 158.47,21.95 148.01,15.92 148.01,15.4 "/>
</svg>
