<?xml version="1.0" encoding="utf-8"?>
<!-- Generator: Adobe Illustrator 28.0.0, SVG Export Plug-In . SVG Version: 6.00 Build 0)  -->
<svg version="1.1" id="レイヤー_1" xmlns="http://www.w3.org/2000/svg" xmlns:xlink="http://www.w3.org/1999/xlink" x="0px"
	 y="0px" viewBox="0 0 73.08 56.54" style="enable-background:new 0 0 73.08 56.54;" xml:space="preserve">
<style type="text/css">
	.st0{fill:#040000;}
	.st1{font-family:'Helvetica';}
	.st2{font-size:7px;}
	.st3{fill:#E83418;}
</style>
<polygon class="st0" points="49.19,41.25 48.97,41.77 42.9,31.25 42.98,30.95 43.45,31.3 "/>
<polygon class="st0" points="60.66,38.24 60.88,38.42 60.66,38.71 48.97,41.77 49.19,41.25 "/>
<polygon class="st0" points="72.15,41.15 73.08,41.86 61.11,38.71 60.88,38.42 61.11,38.24 "/>
<polygon class="st0" points="66.4,31.21 66.51,30.95 66.74,30.89 73.08,41.86 72.15,41.15 "/>
<polygon class="st0" points="54.71,34.27 54.71,33.8 59.41,32.58 59.41,33.04 "/>
<polygon class="st0" points="66.29,30.77 66.51,30.95 66.4,31.21 62.36,32.27 62.36,31.8 "/>
<polygon class="st0" points="43.45,31.3 42.98,30.95 43.21,30.77 54.71,33.8 54.71,34.27 "/>
<text transform="matrix(1 0 0 1 29.6901 39.6007)" class="st0 st1 st2">O</text>
<polygon class="st0" points="35.88,35.3 35.66,34.91 42.76,30.82 42.98,30.95 42.9,31.25 "/>
<polygon class="st0" points="21.85,31.21 21.85,30.69 29.21,34.94 28.98,35.33 "/>
<polygon class="st0" points="11.51,37.18 11.06,36.92 21.85,30.69 21.85,31.21 "/>
<rect x="5.47" y="28.78" transform="matrix(0.5002 -0.8659 0.8659 0.5002 -27.6581 22.5415)" class="st3" width="0.45" height="12.9"/>
<rect x="6.69" y="26.67" transform="matrix(0.5002 -0.8659 0.8659 0.5002 -25.2195 22.5421)" class="st3" width="0.45" height="12.9"/>
<polygon class="st0" points="60.66,26.28 61.11,26.16 61.11,38.24 60.88,38.42 60.66,38.24 "/>
<polygon class="st0" points="42.76,18.57 43.21,18.92 43.21,30.77 42.98,30.95 42.76,30.82 "/>
<polygon class="st0" points="66.29,18.92 66.74,18.57 66.74,30.89 66.51,30.95 66.29,30.77 "/>
<polygon class="st0" points="54.67,15.92 54.78,15.66 55.25,16.01 61.11,26.16 60.66,26.28 "/>
<polygon class="st0" points="43.21,18.92 42.76,18.57 54.56,15.48 54.78,15.66 54.67,15.92 "/>
<polygon class="st0" points="55.25,16.01 54.78,15.66 55.01,15.48 66.74,18.57 66.29,18.92 "/>
<text transform="matrix(1 0 0 1 52.0601 6.0107)" class="st0 st1 st2">OH</text>
<polygon class="st0" points="54.56,7.38 55.01,7.38 55.01,15.48 54.78,15.66 54.56,15.48 "/>
<polygon class="st0" points="11.51,49.25 11.06,49.25 11.06,36.92 11.51,37.18 "/>
<text transform="matrix(1 0 0 1 19.1301 21.3008)" class="st0 st1 st2">O</text>
<rect x="20.41" y="22.67" class="st0" width="0.45" height="8.98"/>
<rect x="22.85" y="22.67" class="st0" width="0.45" height="8.98"/>
<text transform="matrix(1 0 0 1 58.1502 53.1707)" class="st0 st1 st2">OH</text>
<polygon class="st0" points="61.1,46.79 60.65,46.79 60.66,38.71 60.88,38.42 61.11,38.71 "/>
</svg>
