<?xml version="1.0" encoding="utf-8"?>
<!-- Generator: Adobe Illustrator 28.0.0, SVG Export Plug-In . SVG Version: 6.00 Build 0)  -->
<svg version="1.1" id="レイヤー_1" xmlns="http://www.w3.org/2000/svg" xmlns:xlink="http://www.w3.org/1999/xlink" x="0px"
	 y="0px" viewBox="0 0 53.05 27.68" style="enable-background:new 0 0 53.05 27.68;" xml:space="preserve">
<style type="text/css">
	.st0{fill:#040000;}
	.st1{font-family:'Helvetica';}
	.st2{font-size:7px;}
	.st3{fill:#E83418;}
</style>
<text transform="matrix(1 0 0 1 18.5201 6.0105)" class="st0 st1 st2">O</text>
<text transform="matrix(1 0 0 1 29.0801 24.3105)" class="st0 st1 st2">O</text>
<polygon class="st3" points="10.67,21.5 10.67,22.02 0,15.85 0.23,15.46 "/>
<rect x="5.78" y="10.85" transform="matrix(0.5002 -0.8659 0.8659 0.5002 -11.0647 13.3161)" class="st3" width="0.45" height="10.79"/>
<polygon class="st0" points="21.24,15.4 21.24,15.92 10.67,22.02 10.67,21.5 "/>
<rect x="19.8" y="7.43" class="st0" width="0.45" height="8.93"/>
<rect x="22.24" y="7.43" class="st0" width="0.45" height="8.93"/>
<polygon class="st0" points="28.58,19.64 28.36,20.03 21.24,15.92 21.24,15.4 "/>
<polygon class="st0" points="42.15,15.53 42.37,15.66 42.37,15.92 35.21,20.05 34.99,19.66 "/>
<polygon class="st0" points="53.05,21.56 52.82,21.95 42.37,15.92 42.37,15.66 42.82,15.66 "/>
<polygon class="st0" points="52.82,9.36 53.05,9.75 42.82,15.66 42.37,15.66 42.6,15.27 "/>
<polygon class="st0" points="42.15,3.46 42.6,3.46 42.6,15.27 42.37,15.66 42.15,15.53 "/>
</svg>
