<?xml version="1.0" encoding="utf-8"?>
<!-- Generator: Adobe Illustrator 28.0.0, SVG Export Plug-In . SVG Version: 6.00 Build 0)  -->
<svg version="1.1" id="レイヤー_1" xmlns="http://www.w3.org/2000/svg" xmlns:xlink="http://www.w3.org/1999/xlink" x="0px"
	 y="0px" viewBox="0 0 64.23 39.88" style="enable-background:new 0 0 64.23 39.88;" xml:space="preserve">
<style type="text/css">
	.st0{fill:#040000;}
	.st1{font-family:'Helvetica';}
	.st2{font-size:7px;}
	.st3{fill:#E83418;}
</style>
<text transform="matrix(1 0 0 1 19.13 6.0106)" class="st0 st1 st2">O</text>
<text transform="matrix(1 0 0 1 29.7001 24.3105)" class="st0 st1 st2">O</text>
<text transform="matrix(1 0 0 1 50.8301 36.5106)" class="st0 st1 st2">OH</text>
<polygon class="st0" points="11.07,21.63 11.52,21.89 11.52,33.96 11.07,33.96 "/>
<rect x="5.48" y="13.49" transform="matrix(0.4998 -0.8661 0.8661 0.4998 -14.4184 14.9123)" class="st3" width="0.45" height="12.91"/>
<rect x="6.7" y="11.37" transform="matrix(0.4998 -0.8661 0.8661 0.4998 -11.9772 14.9117)" class="st3" width="0.45" height="12.91"/>
<polygon class="st0" points="21.85,15.4 21.85,15.92 11.52,21.89 11.07,21.63 "/>
<rect x="20.41" y="7.38" class="st0" width="0.45" height="8.98"/>
<rect x="22.85" y="7.38" class="st0" width="0.45" height="8.98"/>
<polygon class="st0" points="29.18,19.63 28.95,20.01 21.85,15.92 21.85,15.4 "/>
<polygon class="st0" points="42.98,15.4 42.98,15.92 35.85,20.03 35.63,19.64 "/>
<polygon class="st0" points="53.55,21.5 53.55,21.76 53.33,21.89 42.98,15.92 42.98,15.4 "/>
<polygon class="st0" points="64,15.46 64.23,15.85 53.78,21.89 53.55,21.76 53.55,21.5 "/>
<polygon class="st0" points="53.78,30.08 53.33,30.08 53.33,21.89 53.55,21.76 53.78,21.89 "/>
</svg>
