<?xml version="1.0" encoding="utf-8"?>
<!-- Generator: Adobe Illustrator 28.0.0, SVG Export Plug-In . SVG Version: 6.00 Build 0)  -->
<svg version="1.1" id="レイヤー_1" xmlns="http://www.w3.org/2000/svg" xmlns:xlink="http://www.w3.org/1999/xlink" x="0px"
	 y="0px" viewBox="0 0 73.13 39.81" style="enable-background:new 0 0 73.13 39.81;" xml:space="preserve">
<style type="text/css">
	.st0{fill:#040000;}
	.st1{font-family:'Helvetica';}
	.st2{font-size:7px;}
	.st3{fill:#E83418;}
</style>
<text transform="matrix(1 0 0 1 19.1301 6.0108)" class="st0 st1 st2">O</text>
<text transform="matrix(1 0 0 1 29.6901 24.3109)" class="st0 st1 st2">O</text>
<text transform="matrix(1 0 0 1 52.1001 36.4408)" class="st0 st1 st2">O</text>
<polygon class="st0" points="11.06,21.63 11.51,21.89 11.51,33.96 11.06,33.96 "/>
<rect x="5.47" y="13.49" transform="matrix(0.5002 -0.8659 0.8659 0.5002 -14.4183 14.8995)" class="st3" width="0.45" height="12.9"/>
<rect x="6.69" y="11.38" transform="matrix(0.5002 -0.8659 0.8659 0.5002 -11.9798 14.9002)" class="st3" width="0.45" height="12.9"/>
<polygon class="st0" points="21.85,15.4 21.85,15.92 11.51,21.89 11.06,21.63 "/>
<rect x="20.41" y="7.38" class="st0" width="0.45" height="8.98"/>
<rect x="22.85" y="7.38" class="st0" width="0.45" height="8.98"/>
<polygon class="st0" points="29.17,19.62 28.94,20.01 21.85,15.92 21.85,15.4 "/>
<polygon class="st0" points="42.98,15.4 42.98,15.92 35.85,20.04 35.62,19.65 "/>
<polygon class="st0" points="53.56,21.51 53.54,21.76 53.33,21.9 42.98,15.92 42.98,15.4 "/>
<polygon class="st0" points="64.74,16.52 64.62,17.06 53.78,21.9 53.54,21.76 53.56,21.51 "/>
<polygon class="st0" points="73.13,25.83 72.58,25.89 64.62,17.06 64.74,16.52 "/>
<polygon class="st0" points="66.87,36.68 66.64,36.17 72.58,25.89 73.13,25.83 "/>
<polygon class="st0" points="58.39,34.88 58.48,34.44 66.64,36.17 66.87,36.68 "/>
<polygon class="st0" points="54.64,30.02 54.19,30.07 53.33,21.9 53.54,21.76 53.78,21.9 "/>
</svg>
