<?xml version="1.0" encoding="UTF-8"?><svg id="_レイヤー_1" xmlns="http://www.w3.org/2000/svg" viewBox="0 0 43.1 33.96"><defs><style>.cls-1{fill:#e83418;}.cls-1,.cls-2{stroke-width:0px;}.cls-2,.cls-3{fill:#040000;}.cls-3{font-family:Helvetica, Helvetica;font-size:7px;}</style></defs><text class="cls-3" transform="translate(19.13 6.01)"><tspan x="0" y="0">O</tspan></text><text class="cls-3" transform="translate(29.7 24.31)"><tspan x="0" y="0">O</tspan></text><polygon class="cls-2" points="11.07 21.63 11.52 21.89 11.52 33.96 11.07 33.96 11.07 21.63"/><rect class="cls-1" x="5.48" y="13.49" width=".45" height="12.91" transform="translate(-14.42 14.91) rotate(-60.01)"/><rect class="cls-1" x="6.7" y="11.37" width=".45" height="12.91" transform="translate(-11.98 14.91) rotate(-60.01)"/><polygon class="cls-2" points="21.85 15.4 21.85 15.92 11.52 21.89 11.07 21.63 21.85 15.4"/><rect class="cls-2" x="20.41" y="7.38" width=".45" height="8.98"/><rect class="cls-2" x="22.85" y="7.38" width=".45" height="8.98"/><polygon class="cls-2" points="29.18 19.63 28.95 20.01 21.85 15.92 21.85 15.4 29.18 19.63"/><rect class="cls-2" x="35.18" y="17.52" width="8.36" height=".45" transform="translate(-3.6 22.07) rotate(-30.01)"/></svg>