<?xml version="1.0" encoding="utf-8"?>
<!-- Generator: Adobe Illustrator 28.0.0, SVG Export Plug-In . SVG Version: 6.00 Build 0)  -->
<svg version="1.1" id="レイヤー_1" xmlns="http://www.w3.org/2000/svg" xmlns:xlink="http://www.w3.org/1999/xlink" x="0px"
	 y="0px" viewBox="0 0 116.44 27.68" style="enable-background:new 0 0 116.44 27.68;" xml:space="preserve">
<style type="text/css">
	.st0{fill:#040000;}
	.st1{font-family:'Helvetica';}
	.st2{font-size:7px;}
	.st3{fill:#E83418;}
</style>
<text transform="matrix(1 0 0 1 92.4701 24.3106)" class="st0 st1 st2">O</text>
<text transform="matrix(1 0 0 1 60.7801 18.2106)" class="st0 st1 st2">O</text>
<text transform="matrix(1 0 0 1 29.0801 24.3106)" class="st0 st1 st2">O</text>
<text transform="matrix(1 0 0 1 18.5201 6.0106)" class="st0 st1 st2">O</text>
<polygon class="st0" points="105.76,15.92 105.76,15.4 116.44,21.56 116.21,21.95 "/>
<rect x="110.21" y="15.78" transform="matrix(0.5002 -0.8659 0.8659 0.5002 36.8601 106.2046)" class="st0" width="0.45" height="10.79"/>
<polygon class="st0" points="98.64,20.03 98.42,19.64 105.76,15.4 105.76,15.92 "/>
<polygon class="st0" points="84.63,15.92 84.63,15.4 92.01,19.66 91.78,20.05 "/>
<polygon class="st0" points="74.06,22.02 74.06,21.5 84.63,15.4 84.63,15.92 "/>
<polygon class="st0" points="66.73,17.78 66.95,17.39 74.06,21.5 74.06,22.02 "/>
<polygon class="st0" points="52.93,22.02 52.93,21.5 60.01,17.41 60.23,17.8 "/>
<polygon class="st0" points="42.37,15.92 42.37,15.4 52.93,21.5 52.93,22.02 "/>
<polygon class="st0" points="35.25,20.03 35.03,19.64 42.37,15.4 42.37,15.92 "/>
<polygon class="st0" points="21.24,15.92 21.24,15.4 28.62,19.66 28.39,20.05 "/>
<rect x="19.8" y="7.43" class="st0" width="0.45" height="8.93"/>
<rect x="22.24" y="7.43" class="st0" width="0.45" height="8.93"/>
<polygon class="st0" points="10.67,22.02 10.67,21.5 21.24,15.4 21.24,15.92 "/>
<polygon class="st3" points="0,15.85 0.23,15.46 10.67,21.5 10.67,22.02 "/>
<rect x="5.78" y="10.85" transform="matrix(0.5002 -0.8659 0.8659 0.5002 -11.0648 13.3163)" class="st3" width="0.45" height="10.79"/>
</svg>
