<?xml version="1.0" encoding="utf-8"?>
<!-- Generator: Adobe Illustrator 28.0.0, SVG Export Plug-In . SVG Version: 6.00 Build 0)  -->
<svg version="1.1" id="レイヤー_1" xmlns="http://www.w3.org/2000/svg" xmlns:xlink="http://www.w3.org/1999/xlink" x="0px"
	 y="0px" viewBox="0 0 102.97 40.32" style="enable-background:new 0 0 102.97 40.32;" xml:space="preserve">
<style type="text/css">
	.st0{fill:#040000;}
	.st1{font-family:'Helvetica';}
	.st2{font-size:7px;}
	.st3{fill:#E83418;}
</style>
<text transform="matrix(1 0 0 1 18.5201 6.011)" class="st0 st1 st2">O</text>
<text transform="matrix(1 0 0 1 29.0901 24.311)" class="st0 st1 st2">O</text>
<text transform="matrix(1 0 0 1 92.4701 36.511)" class="st0 st1 st2">OH</text>
<polygon class="st3" points="10.68,21.5 10.68,22.02 0,15.85 0.22,15.46 "/>
<rect x="5.78" y="10.84" transform="matrix(0.4998 -0.8661 0.8661 0.4998 -11.0625 13.3265)" class="st3" width="0.45" height="10.79"/>
<polygon class="st0" points="21.24,15.4 21.24,15.92 10.68,22.02 10.68,21.5 "/>
<rect x="19.8" y="7.38" class="st0" width="0.45" height="8.98"/>
<rect x="22.24" y="7.38" class="st0" width="0.45" height="8.98"/>
<polygon class="st0" points="28.61,19.65 28.38,20.04 21.24,15.92 21.24,15.4 "/>
<polygon class="st0" points="42.37,15.4 42.37,15.92 35.28,20.01 35.06,19.62 "/>
<polygon class="st0" points="52.94,21.5 52.94,21.76 52.72,21.89 42.37,15.92 42.37,15.4 "/>
<polygon class="st0" points="53.17,33.83 52.72,34.09 52.72,21.89 52.94,21.76 53.17,21.89 "/>
<polygon class="st0" points="63.5,39.8 63.5,40.32 52.72,34.09 53.17,33.83 "/>
<polygon class="st0" points="73.85,33.83 74.07,33.96 74.07,34.22 63.5,40.32 63.5,39.8 "/>
<polygon class="st0" points="84.63,39.8 84.63,40.32 74.07,34.22 74.07,33.96 74.3,33.83 "/>
<polygon class="st0" points="91.72,35.7 91.95,36.09 84.63,40.32 84.63,39.8 "/>
<polygon class="st0" points="73.85,21.89 74.3,21.63 74.3,33.83 74.07,33.96 73.85,33.83 "/>
<polygon class="st0" points="63.5,15.92 63.5,15.4 74.3,21.63 73.85,21.89 "/>
<polygon class="st0" points="63.5,15.4 63.5,15.92 53.17,21.89 52.94,21.76 52.94,21.5 "/>
</svg>
