<?xml version="1.0" encoding="utf-8"?>
<!-- Generator: Adobe Illustrator 28.0.0, SVG Export Plug-In . SVG Version: 6.00 Build 0)  -->
<svg version="1.1" id="レイヤー_1" xmlns="http://www.w3.org/2000/svg" xmlns:xlink="http://www.w3.org/1999/xlink" x="0px"
	 y="0px" viewBox="0 0 72.52 36.67" style="enable-background:new 0 0 72.52 36.67;" xml:space="preserve">
<style type="text/css">
	.st0{fill:#040000;}
	.st1{font-family:'Helvetica';}
	.st2{font-size:7px;}
	.st3{fill:#E83418;}
</style>
<text transform="matrix(1 0 0 1 18.5201 6.0105)" class="st0 st1 st2">O</text>
<text transform="matrix(1 0 0 1 29.0801 24.3105)" class="st0 st1 st2">O</text>
<text transform="matrix(1 0 0 1 61.3601 19.3405)" class="st0 st1 st2">O</text>
<polygon class="st3" points="10.67,21.5 10.67,22.02 0,15.85 0.23,15.46 "/>
<rect x="5.78" y="10.85" transform="matrix(0.5002 -0.8659 0.8659 0.5002 -11.0648 13.3165)" class="st3" width="0.45" height="10.79"/>
<polygon class="st0" points="21.24,15.4 21.24,15.92 10.67,22.02 10.67,21.5 "/>
<rect x="19.8" y="7.38" class="st0" width="0.45" height="8.98"/>
<rect x="22.24" y="7.38" class="st0" width="0.45" height="8.98"/>
<polygon class="st0" points="28.6,19.65 28.37,20.04 21.24,15.92 21.24,15.4 "/>
<polygon class="st0" points="42.37,15.4 42.37,15.92 35.27,20.01 35.05,19.62 "/>
<polygon class="st0" points="52.95,21.5 52.93,21.76 52.72,21.89 42.37,15.92 42.37,15.4 "/>
<polygon class="st0" points="54.42,33.7 54.01,34.07 52.72,21.89 52.93,21.76 53.17,21.9 "/>
<polygon class="st0" points="66.03,36.16 66.26,36.67 54.01,34.07 54.42,33.7 "/>
<polygon class="st0" points="71.97,25.89 72.52,25.83 66.26,36.67 66.03,36.16 "/>
<polygon class="st0" points="66.54,19.86 66.88,19.56 72.52,25.83 71.97,25.89 "/>
<polygon class="st0" points="60.48,18.15 60.66,18.56 53.17,21.9 52.93,21.76 52.95,21.5 "/>
</svg>
