<?xml version="1.0" encoding="utf-8"?>
<!-- Generator: Adobe Illustrator 28.0.0, SVG Export Plug-In . SVG Version: 6.00 Build 0)  -->
<svg version="1.1" id="レイヤー_1" xmlns="http://www.w3.org/2000/svg" xmlns:xlink="http://www.w3.org/1999/xlink" x="0px"
	 y="0px" viewBox="0 0 72.47 42.97" style="enable-background:new 0 0 72.47 42.97;" xml:space="preserve">
<style type="text/css">
	.st0{fill:#040000;}
	.st1{font-family:'Helvetica';}
	.st2{font-size:7px;}
	.st3{fill:#E83418;}
</style>
<polygon class="st0" points="48.58,41.26 48.36,41.78 42.29,31.26 42.37,30.95 42.84,31.3 "/>
<polygon class="st0" points="60.05,38.24 60.27,38.42 60.27,38.65 48.36,41.78 48.58,41.26 "/>
<polygon class="st0" points="71.54,41.16 72.47,41.87 60.27,38.65 60.27,38.42 60.5,38.24 "/>
<polygon class="st0" points="65.79,31.21 65.9,30.95 66.13,30.89 72.47,41.87 71.54,41.16 "/>
<polygon class="st0" points="54.1,34.27 54.1,33.8 58.8,32.58 58.8,33.04 "/>
<polygon class="st0" points="65.68,30.77 65.9,30.95 65.79,31.21 61.75,32.27 61.75,31.8 "/>
<polygon class="st0" points="42.84,31.3 42.37,30.95 42.6,30.77 54.1,33.8 54.1,34.27 "/>
<text transform="matrix(1 0 0 1 29.0901 39.601)" class="st0 st1 st2">O</text>
<polygon class="st0" points="35.22,35.34 35,34.95 42.15,30.82 42.37,30.95 42.29,31.26 "/>
<polygon class="st0" points="21.24,31.21 21.24,30.69 28.59,34.93 28.37,35.32 "/>
<polygon class="st0" points="10.68,37.31 10.68,36.79 21.24,30.69 21.24,31.21 "/>
<polygon class="st3" points="0,31.14 0.22,30.75 10.68,36.79 10.68,37.31 "/>
<rect x="5.78" y="26.13" transform="matrix(0.4998 -0.8661 0.8661 0.4998 -24.3054 20.9736)" class="st3" width="0.45" height="10.79"/>
<polygon class="st0" points="60.05,26.28 60.5,26.16 60.5,38.24 60.27,38.42 60.05,38.24 "/>
<polygon class="st0" points="42.15,18.57 42.6,18.92 42.6,30.77 42.37,30.95 42.15,30.82 "/>
<polygon class="st0" points="65.68,18.92 66.13,18.57 66.13,30.89 65.9,30.95 65.68,30.77 "/>
<polygon class="st0" points="54.06,15.92 54.17,15.66 54.64,16.01 60.5,26.16 60.05,26.28 "/>
<polygon class="st0" points="42.6,18.92 42.15,18.57 53.95,15.48 54.17,15.66 54.06,15.92 "/>
<polygon class="st0" points="54.64,16.01 54.17,15.66 54.4,15.48 66.13,18.57 65.68,18.92 "/>
<text transform="matrix(1 0 0 1 51.45 6.011)" class="st0 st1 st2">OH</text>
<polygon class="st0" points="53.95,7.38 54.4,7.38 54.4,15.48 54.17,15.66 53.95,15.48 "/>
<text transform="matrix(1 0 0 1 18.5201 21.301)" class="st0 st1 st2">O</text>
<rect x="19.8" y="22.72" class="st0" width="0.45" height="8.93"/>
<rect x="22.24" y="22.72" class="st0" width="0.45" height="8.93"/>
</svg>
