<?xml version="1.0" encoding="utf-8"?>
<!-- Generator: Adobe Illustrator 28.0.0, SVG Export Plug-In . SVG Version: 6.00 Build 0)  -->
<svg version="1.1" id="レイヤー_1" xmlns="http://www.w3.org/2000/svg" xmlns:xlink="http://www.w3.org/1999/xlink" x="0px"
	 y="0px" viewBox="0 0 72.92 40.06" style="enable-background:new 0 0 72.92 40.06;" xml:space="preserve">
<style type="text/css">
	.st0{fill:#040000;}
	.st1{font-family:'Helvetica';}
	.st2{font-size:7px;}
	.st3{fill:#E83418;}
</style>
<text transform="matrix(1 0 0 1 18.52 6.0108)" class="st0 st1 st2">O</text>
<text transform="matrix(1 0 0 1 29.0901 24.3108)" class="st0 st1 st2">O</text>
<text transform="matrix(1 0 0 1 67.4701 24.3108)" class="st0 st1 st2">O</text>
<polygon class="st3" points="10.68,21.5 10.68,22.02 0,15.85 0.22,15.46 "/>
<rect x="5.78" y="10.84" transform="matrix(0.4998 -0.8661 0.8661 0.4998 -11.0623 13.3264)" class="st3" width="0.45" height="10.79"/>
<polygon class="st0" points="21.24,15.4 21.24,15.92 10.68,22.02 10.68,21.5 "/>
<rect x="19.8" y="7.43" class="st0" width="0.45" height="8.93"/>
<rect x="22.24" y="7.43" class="st0" width="0.45" height="8.93"/>
<polygon class="st0" points="28.59,19.64 28.37,20.03 21.24,15.92 21.24,15.4 "/>
<polygon class="st0" points="42.37,15.4 42.37,15.92 35.22,20.05 35,19.66 "/>
<polygon class="st0" points="52.91,21.48 52.94,21.76 52.49,21.76 42.37,15.92 42.37,15.4 "/>
<polygon class="st0" points="42.6,27.99 42.15,27.73 52.49,21.76 52.94,21.76 52.91,22.04 "/>
<polygon class="st0" points="42.6,40.06 42.15,40.06 42.15,27.73 42.6,27.99 "/>
<polygon class="st0" points="61.56,12.81 61.56,13.45 53.26,21.76 52.94,21.76 52.91,21.48 "/>
<polygon class="st0" points="67.6,18.85 67.29,19.17 61.56,13.45 61.56,12.81 "/>
<polygon class="st0" points="61.56,30.7 61.56,30.06 67.19,24.44 67.51,24.76 "/>
<polygon class="st0" points="61.56,30.06 61.56,30.7 52.91,22.04 52.94,21.76 53.26,21.76 "/>
</svg>
