<?xml version="1.0" encoding="UTF-8"?><svg id="_レイヤー_1" xmlns="http://www.w3.org/2000/svg" viewBox="0 0 53.65 33.96"><defs><style>.cls-1{fill:#e83418;}.cls-1,.cls-2{stroke-width:0px;}.cls-2,.cls-3{fill:#040000;}.cls-3{font-family:Helvetica, Helvetica;font-size:7px;}</style></defs><text class="cls-3" transform="translate(19.13 6.01)"><tspan x="0" y="0">O</tspan></text><text class="cls-3" transform="translate(29.69 24.31)"><tspan x="0" y="0">O</tspan></text><polygon class="cls-2" points="11.07 21.63 11.52 21.89 11.52 33.96 11.07 33.96 11.07 21.63"/><rect class="cls-1" x="5.48" y="13.49" width=".45" height="12.91" transform="translate(-14.42 14.91) rotate(-60.01)"/><rect class="cls-1" x="6.7" y="11.37" width=".45" height="12.91" transform="translate(-11.98 14.91) rotate(-60.01)"/><polygon class="cls-2" points="21.85 15.4 21.85 15.92 11.52 21.89 11.07 21.63 21.85 15.4"/><rect class="cls-2" x="20.41" y="7.43" width=".45" height="8.93"/><rect class="cls-2" x="22.85" y="7.43" width=".45" height="8.93"/><polygon class="cls-2" points="29.23 19.66 29 20.05 21.85 15.92 21.85 15.4 29.23 19.66"/><polygon class="cls-2" points="42.98 15.4 42.98 15.92 35.86 20.03 35.64 19.64 42.98 15.4"/><polygon class="cls-2" points="53.65 21.56 53.43 21.95 42.98 15.92 42.98 15.4 53.65 21.56"/></svg>