<?xml version="1.0" encoding="utf-8"?>
<!-- Generator: Adobe Illustrator 28.0.0, SVG Export Plug-In . SVG Version: 6.00 Build 0)  -->
<svg version="1.1" id="レイヤー_1" xmlns="http://www.w3.org/2000/svg" xmlns:xlink="http://www.w3.org/1999/xlink" x="0px"
	 y="0px" viewBox="0 0 81.84 33.63" style="enable-background:new 0 0 81.84 33.63;" xml:space="preserve">
<style type="text/css">
	.st0{fill:#040000;}
	.st1{font-family:'Helvetica';}
	.st2{font-size:7px;}
	.st3{fill:#E83418;}
</style>
<text transform="matrix(1 0 0 1 18.5201 6.0108)" class="st0 st1 st2">O</text>
<text transform="matrix(1 0 0 1 29.2749 24.2424)" class="st0 st1 st2">N</text>
<text transform="matrix(1 0 0 1 29.2749 30.2639)" class="st0 st1 st2">H</text>
<text transform="matrix(1 0 0 1 61.1681 18.2108)" class="st0 st1 st2">S</text>
<text transform="matrix(1 0 0 1 66.8801 28.7708)" class="st0 st1 st2">O</text>
<text transform="matrix(1 0 0 1 54.6801 7.6408)" class="st0 st1 st2">O</text>
<text transform="matrix(1 0 0 1 71.3401 12.1107)" class="st0 st1 st2">OH</text>
<polygon class="st3" points="10.67,21.5 10.67,22.02 0,15.85 0.23,15.46 "/>
<rect x="5.78" y="10.85" transform="matrix(0.5002 -0.8659 0.8659 0.5002 -11.0649 13.3161)" class="st3" width="0.45" height="10.79"/>
<polygon class="st0" points="21.24,15.4 21.24,15.92 10.67,22.02 10.67,21.5 "/>
<rect x="19.8" y="7.43" class="st0" width="0.45" height="8.93"/>
<rect x="22.24" y="7.43" class="st0" width="0.45" height="8.93"/>
<polygon class="st0" points="28.23,19.43 28,19.82 21.24,15.92 21.24,15.4 "/>
<polygon class="st0" points="42.07,15.57 42.37,15.66 42.37,15.92 35.61,19.82 35.39,19.43 "/>
<polygon class="st0" points="36.08,5.2 36.47,4.97 42.37,15.21 42.37,15.66 42.07,15.57 "/>
<polygon class="st0" points="48.28,4.97 48.67,5.2 42.68,15.58 42.37,15.66 42.37,15.21 "/>
<polygon class="st0" points="52.93,21.5 52.93,22.02 42.37,15.92 42.37,15.66 42.68,15.58 "/>
<polygon class="st0" points="60.09,17.36 60.32,17.75 52.93,22.02 52.93,21.5 "/>
<rect x="67.41" y="18.24" transform="matrix(0.8659 -0.5002 0.5002 0.8659 -1.12 36.5593)" class="st0" width="0.45" height="4.25"/>
<rect x="65.3" y="19.46" transform="matrix(0.8659 -0.5002 0.5002 0.8659 -2.0132 35.6674)" class="st0" width="0.45" height="4.25"/>
<rect x="59.2" y="8.85" transform="matrix(0.8661 -0.4998 0.4998 0.8661 2.4428 31.1791)" class="st0" width="0.45" height="4.35"/>
<rect x="61.31" y="7.63" transform="matrix(0.8661 -0.4998 0.4998 0.8661 3.3356 32.0722)" class="st0" width="0.45" height="4.35"/>
<rect x="66.29" y="12.46" transform="matrix(0.8659 -0.5002 0.5002 0.8659 2.8593 36.0385)" class="st0" width="4.7" height="0.45"/>
</svg>
