<?xml version="1.0" encoding="utf-8"?>
<!-- Generator: Adobe Illustrator 28.0.0, SVG Export Plug-In . SVG Version: 6.00 Build 0)  -->
<svg version="1.1" id="レイヤー_1" xmlns="http://www.w3.org/2000/svg" xmlns:xlink="http://www.w3.org/1999/xlink" x="0px"
	 y="0px" viewBox="0 0 95.42 40.32" style="enable-background:new 0 0 95.42 40.32;" xml:space="preserve">
<style type="text/css">
	.st0{fill:#040000;}
	.st1{font-family:'Helvetica';}
	.st2{font-size:7px;}
	.st3{fill:#E83418;}
	.st4{fill:none;stroke:#040000;stroke-width:0.45;stroke-linecap:round;stroke-miterlimit:10;}
</style>
<text transform="matrix(1 0 0 1 18.52 6.0109)" class="st0 st1 st2">O</text>
<text transform="matrix(1 0 0 1 29.0801 24.3109)" class="st0 st1 st2">O</text>
<text transform="matrix(1 0 0 1 60.7801 18.2108)" class="st0 st1 st2">O</text>
<polygon class="st3" points="10.68,21.5 10.68,22.02 0,15.85 0.22,15.46 "/>
<rect x="5.78" y="10.84" transform="matrix(0.4998 -0.8661 0.8661 0.4998 -11.0623 13.326)" class="st3" width="0.45" height="10.79"/>
<polygon class="st0" points="21.24,15.4 21.24,15.92 10.68,22.02 10.68,21.5 "/>
<rect x="19.8" y="7.38" class="st0" width="0.45" height="8.98"/>
<rect x="22.24" y="7.38" class="st0" width="0.45" height="8.98"/>
<polygon class="st0" points="28.6,19.65 28.37,20.04 21.24,15.92 21.24,15.4 "/>
<polygon class="st0" points="42.37,15.4 42.37,15.92 35.27,20.01 35.05,19.62 "/>
<polygon class="st0" points="52.93,21.5 52.93,22.02 42.37,15.92 42.37,15.4 "/>
<polygon class="st0" points="60.03,17.4 60.26,17.79 52.93,22.02 52.93,21.5 "/>
<polygon class="st0" points="74.06,21.5 74.06,21.76 73.84,21.89 66.71,17.77 66.93,17.38 "/>
<polygon class="st0" points="74.29,33.83 73.84,34.09 73.84,21.89 74.06,21.76 74.29,21.89 "/>
<polygon class="st0" points="84.63,39.8 84.63,40.32 73.84,34.09 74.29,33.83 "/>
<polygon class="st0" points="94.97,33.83 95.42,34.09 84.63,40.32 84.63,39.8 "/>
<polygon class="st0" points="94.97,21.89 95.42,21.63 95.42,34.09 94.97,33.83 "/>
<polygon class="st0" points="84.63,15.92 84.63,15.4 95.42,21.63 94.97,21.89 "/>
<polygon class="st0" points="84.63,15.4 84.63,15.92 74.29,21.89 74.06,21.76 74.06,21.5 "/>
<circle class="st4" cx="84.63" cy="27.86" r="7.31"/>
</svg>
