<?xml version="1.0" encoding="utf-8"?>
<!-- Generator: Adobe Illustrator 28.0.0, SVG Export Plug-In . SVG Version: 6.00 Build 0)  -->
<svg version="1.1" id="レイヤー_1" xmlns="http://www.w3.org/2000/svg" xmlns:xlink="http://www.w3.org/1999/xlink" x="0px"
	 y="0px" viewBox="0 0 72.39 46.97" style="enable-background:new 0 0 72.39 46.97;" xml:space="preserve">
<style type="text/css">
	.st0{fill:#040000;}
	.st1{font-family:'Helvetica';}
	.st2{font-size:7px;}
	.st3{fill:#E83418;}
</style>
<polygon class="st0" points="53.93,31.61 54.15,31.78 53.93,32.08 42.46,35.16 42.37,34.95 42.84,34.59 "/>
<polygon class="st0" points="65.82,34.69 66.04,35.21 54.38,32.08 54.15,31.78 54.38,31.61 "/>
<polygon class="st0" points="71.71,24.53 72.39,24.25 66.04,35.21 65.82,34.69 "/>
<polygon class="st0" points="48.34,24.2 48.64,24.59 42.84,34.59 42.37,34.95 42.21,34.79 "/>
<polygon class="st0" points="59.93,21.09 60.27,21.23 60.27,21.47 55.64,22.71 55.64,22.24 "/>
<polygon class="st0" points="48.64,24.59 48.34,24.2 52.69,23.03 52.69,23.5 "/>
<polygon class="st0" points="60.27,21.47 60.27,21.23 60.42,21.04 72.39,24.25 71.71,24.53 "/>
<polygon class="st0" points="54.4,11.51 54.17,10.67 54.43,10.67 60.42,21.04 60.27,21.23 59.93,21.09 "/>
<polygon class="st0" points="53.95,10.77 54.17,10.67 54.4,11.51 54.38,31.61 54.15,31.78 53.93,31.61 "/>
<text transform="matrix(1 0 0 1 29.0801 43.6059)" class="st0 st1 st2">O</text>
<polygon class="st0" points="35.24,39.33 35.01,38.94 42.21,34.79 42.37,34.95 42.46,35.16 "/>
<polygon class="st0" points="21.24,35.21 21.24,34.69 28.56,38.92 28.33,39.31 "/>
<polygon class="st0" points="10.67,41.31 10.67,40.79 21.24,34.69 21.24,35.21 "/>
<polygon class="st3" points="0,35.15 0.23,34.76 10.67,40.79 10.67,41.31 "/>
<rect x="5.78" y="30.14" transform="matrix(0.5002 -0.8659 0.8659 0.5002 -27.7729 22.9602)" class="st3" width="0.45" height="10.79"/>
<text transform="matrix(1 0 0 1 18.5201 25.3059)" class="st0 st1 st2">O</text>
<rect x="19.8" y="26.67" class="st0" width="0.45" height="8.98"/>
<rect x="22.24" y="26.67" class="st0" width="0.45" height="8.98"/>
<polygon class="st0" points="45.38,2.21 45.7,1.89 54.12,10.31 54.17,10.67 53.95,10.77 "/>
<polygon class="st0" points="60.08,0 60.47,0.23 54.43,10.67 54.17,10.67 54.12,10.31 "/>
<polygon class="st0" points="54.38,43.98 53.93,43.98 53.93,32.08 54.15,31.78 54.38,32.08 "/>
</svg>
