<?xml version="1.0" encoding="utf-8"?>
<!-- Generator: Adobe Illustrator 28.0.0, SVG Export Plug-In . SVG Version: 6.00 Build 0)  -->
<svg version="1.1" id="レイヤー_1" xmlns="http://www.w3.org/2000/svg" xmlns:xlink="http://www.w3.org/1999/xlink" x="0px"
	 y="0px" viewBox="0 0 159.3 33.96" style="enable-background:new 0 0 159.3 33.96;" xml:space="preserve">
<style type="text/css">
	.st0{fill:#040000;}
	.st1{font-family:'Helvetica';}
	.st2{font-size:7px;}
	.st3{fill:#E83418;}
</style>
<text transform="matrix(1 0 0 1 19.13 6.0109)" class="st0 st1 st2">O</text>
<text transform="matrix(1 0 0 1 29.6901 24.3109)" class="st0 st1 st2">O</text>
<polygon class="st0" points="11.07,21.63 11.52,21.89 11.52,33.96 11.07,33.96 "/>
<rect x="5.48" y="13.49" transform="matrix(0.4998 -0.8661 0.8661 0.4998 -14.4187 14.9124)" class="st3" width="0.45" height="12.91"/>
<rect x="6.7" y="11.37" transform="matrix(0.4998 -0.8661 0.8661 0.4998 -11.9776 14.9119)" class="st3" width="0.45" height="12.91"/>
<polygon class="st0" points="21.85,15.4 21.85,15.92 11.52,21.89 11.07,21.63 "/>
<rect x="20.41" y="7.38" class="st0" width="0.45" height="8.98"/>
<rect x="22.85" y="7.38" class="st0" width="0.45" height="8.98"/>
<polygon class="st0" points="29.21,19.65 28.98,20.04 21.85,15.92 21.85,15.4 "/>
<polygon class="st0" points="42.98,15.4 42.98,15.92 35.88,20.01 35.66,19.62 "/>
<polygon class="st0" points="53.54,21.5 53.54,22.02 42.98,15.92 42.98,15.4 "/>
<polygon class="st0" points="64.11,15.4 64.11,15.92 53.54,22.02 53.54,21.5 "/>
<polygon class="st0" points="74.67,21.5 74.67,22.02 64.11,15.92 64.11,15.4 "/>
<polygon class="st0" points="85.24,15.4 85.24,15.92 74.67,22.02 74.67,21.5 "/>
<polygon class="st0" points="95.8,21.5 95.8,22.02 85.24,15.92 85.24,15.4 "/>
<polygon class="st0" points="106.37,15.4 106.37,15.92 95.8,22.02 95.8,21.5 "/>
<polygon class="st0" points="116.93,21.5 116.93,22.02 106.37,15.92 106.37,15.4 "/>
<polygon class="st0" points="127.5,15.4 127.5,15.92 116.93,22.02 116.93,21.5 "/>
<polygon class="st0" points="138.06,21.5 138.06,22.02 127.5,15.92 127.5,15.4 "/>
<polygon class="st0" points="148.63,15.4 148.63,15.92 138.06,22.02 138.06,21.5 "/>
<polygon class="st0" points="159.3,21.56 159.08,21.95 148.63,15.92 148.63,15.4 "/>
</svg>
